# Reuse bottle silhouette for green glass bottle.
v 0.038 0.000 0.000
v 0.027 0.027 0.000
v 0.000 0.038 0.000
v -0.027 0.027 0.000
v -0.038 0.000 0.000
v -0.027 -0.027 0.000
v 0.000 -0.038 0.000
v 0.027 -0.027 0.000
v 0.038 0.000 0.210
v 0.027 0.027 0.210
v 0.000 0.038 0.210
v -0.027 0.027 0.210
v -0.038 0.000 0.210
v -0.027 -0.027 0.210
v 0.000 -0.038 0.210
v 0.027 -0.027 0.210
v 0.016 0.000 0.285
v 0.011 0.011 0.285
v 0.000 0.016 0.285
v -0.011 0.011 0.285
v -0.016 0.000 0.285
v -0.011 -0.011 0.285
v 0.000 -0.016 0.285
v 0.011 -0.011 0.285
v 0.016 0.000 0.350
v 0.011 0.011 0.350
v 0.000 0.016 0.350
v -0.011 0.011 0.350
v -0.016 0.000 0.350
v -0.011 -0.011 0.350
v 0.000 -0.016 0.350
v 0.011 -0.011 0.350
f 1 2 10 9
f 2 3 11 10
f 3 4 12 11
f 4 5 13 12
f 5 6 14 13
f 6 7 15 14
f 7 8 16 15
f 8 1 9 16
f 9 10 18 17
f 10 11 19 18
f 11 12 20 19
f 12 13 21 20
f 13 14 22 21
f 14 15 23 22
f 15 16 24 23
f 16 9 17 24
f 17 18 26 25
f 18 19 27 26
f 19 20 28 27
f 20 21 29 28
f 21 22 30 29
f 22 23 31 30
f 23 24 32 31
f 24 17 25 32
