<svg xmlns="http://www.w3.org/2000/svg" width="1120" height="660" viewBox="0 0 1120 660">
<rect width="100%" height="100%" fill="#fff"/>
<text x="560.0" y="42" text-anchor="middle" font-family="DejaVu Sans, Arial" font-size="27" font-weight="700">Количество изображений по частям датасета</text>
<line x1="130" y1="85" x2="130" y2="505" stroke="#333" stroke-width="2"/>
<line x1="130" y1="505" x2="1065" y2="505" stroke="#333" stroke-width="2"/>
<text x="28" y="295.0" transform="rotate(-90 28 295.0)" text-anchor="middle" font-family="DejaVu Sans, Arial" font-size="17">изображения</text>
<line x1="130" y1="505.0" x2="1065" y2="505.0" stroke="#e7e7e7"/>
<text x="118" y="510.0" text-anchor="end" font-family="DejaVu Sans, Arial" font-size="13">0.00</text>
<line x1="130" y1="421.0" x2="1065" y2="421.0" stroke="#e7e7e7"/>
<text x="118" y="426.0" text-anchor="end" font-family="DejaVu Sans, Arial" font-size="13">1940.00</text>
<line x1="130" y1="337.0" x2="1065" y2="337.0" stroke="#e7e7e7"/>
<text x="118" y="342.0" text-anchor="end" font-family="DejaVu Sans, Arial" font-size="13">3880.00</text>
<line x1="130" y1="253.0" x2="1065" y2="253.0" stroke="#e7e7e7"/>
<text x="118" y="258.0" text-anchor="end" font-family="DejaVu Sans, Arial" font-size="13">5820.00</text>
<line x1="130" y1="169.0" x2="1065" y2="169.0" stroke="#e7e7e7"/>
<text x="118" y="174.0" text-anchor="end" font-family="DejaVu Sans, Arial" font-size="13">7760.00</text>
<line x1="130" y1="85.0" x2="1065" y2="85.0" stroke="#e7e7e7"/>
<text x="118" y="90.0" text-anchor="end" font-family="DejaVu Sans, Arial" font-size="13">9700.00</text>
<rect x="245.8" y="85.0" width="80.0" height="420.0" fill="#2F80ED" rx="5"/>
<text x="285.8" y="103.0" text-anchor="middle" font-family="DejaVu Sans, Arial" font-size="14" font-weight="700">9700.00</text>
<text x="285.8" y="529.0" text-anchor="end" transform="rotate(-35 285.8 529.0)" font-family="DejaVu Sans, Arial" font-size="13">обучение</text>
<rect x="557.5" y="453.7" width="80.0" height="51.3" fill="#2F80ED" rx="5"/>
<text x="597.5" y="443.7" text-anchor="middle" font-family="DejaVu Sans, Arial" font-size="14" font-weight="700">1184.00</text>
<text x="597.5" y="529.0" text-anchor="end" transform="rotate(-35 597.5 529.0)" font-family="DejaVu Sans, Arial" font-size="13">валидация</text>
<rect x="869.2" y="488.2" width="80.0" height="16.8" fill="#2F80ED" rx="5"/>
<text x="909.2" y="478.2" text-anchor="middle" font-family="DejaVu Sans, Arial" font-size="14" font-weight="700">389.00</text>
<text x="909.2" y="529.0" text-anchor="end" transform="rotate(-35 909.2 529.0)" font-family="DejaVu Sans, Arial" font-size="13">тест</text>
</svg>
