<svg xmlns="http://www.w3.org/2000/svg" width="1120" height="650" viewBox="0 0 1120 650">
<rect width="100%" height="100%" fill="#fff"/>
<text x="560.0" y="42" text-anchor="middle" font-family="DejaVu Sans, Arial" font-size="27" font-weight="700">Накопленная доля объектов по ошибке локализации</text>
<rect x="100" y="80" width="790" height="500" fill="#fafafa" stroke="#333" stroke-width="2"/>
<text x="26" y="330.0" transform="rotate(-90 26 330.0)" text-anchor="middle" font-family="DejaVu Sans, Arial" font-size="16">доля объектов</text>
<text x="495.0" y="630" text-anchor="middle" font-family="DejaVu Sans, Arial" font-size="16">эпоха обучения</text>
<line x1="100.0" y1="80" x2="100.0" y2="580" stroke="#e5e5e5"/>
<line x1="100" y1="80.0" x2="890" y2="80.0" stroke="#e5e5e5"/>
<text x="100.0" y="604" text-anchor="middle" font-family="DejaVu Sans, Arial" font-size="12">0</text>
<text x="90" y="85.0" text-anchor="end" font-family="DejaVu Sans, Arial" font-size="12">1.00</text>
<line x1="258.0" y1="80" x2="258.0" y2="580" stroke="#e5e5e5"/>
<line x1="100" y1="180.0" x2="890" y2="180.0" stroke="#e5e5e5"/>
<text x="258.0" y="604" text-anchor="middle" font-family="DejaVu Sans, Arial" font-size="12">0</text>
<text x="90" y="185.0" text-anchor="end" font-family="DejaVu Sans, Arial" font-size="12">0.80</text>
<line x1="416.0" y1="80" x2="416.0" y2="580" stroke="#e5e5e5"/>
<line x1="100" y1="280.0" x2="890" y2="280.0" stroke="#e5e5e5"/>
<text x="416.0" y="604" text-anchor="middle" font-family="DejaVu Sans, Arial" font-size="12">0</text>
<text x="90" y="285.0" text-anchor="end" font-family="DejaVu Sans, Arial" font-size="12">0.60</text>
<line x1="574.0" y1="80" x2="574.0" y2="580" stroke="#e5e5e5"/>
<line x1="100" y1="380.0" x2="890" y2="380.0" stroke="#e5e5e5"/>
<text x="574.0" y="604" text-anchor="middle" font-family="DejaVu Sans, Arial" font-size="12">0</text>
<text x="90" y="385.0" text-anchor="end" font-family="DejaVu Sans, Arial" font-size="12">0.40</text>
<line x1="732.0" y1="80" x2="732.0" y2="580" stroke="#e5e5e5"/>
<line x1="100" y1="480.0" x2="890" y2="480.0" stroke="#e5e5e5"/>
<text x="732.0" y="604" text-anchor="middle" font-family="DejaVu Sans, Arial" font-size="12">1</text>
<text x="90" y="485.0" text-anchor="end" font-family="DejaVu Sans, Arial" font-size="12">0.20</text>
<line x1="890.0" y1="80" x2="890.0" y2="580" stroke="#e5e5e5"/>
<line x1="100" y1="580.0" x2="890" y2="580.0" stroke="#e5e5e5"/>
<text x="890.0" y="604" text-anchor="middle" font-family="DejaVu Sans, Arial" font-size="12">1</text>
<text x="90" y="585.0" text-anchor="end" font-family="DejaVu Sans, Arial" font-size="12">0.00</text>
<line x1="100" y1="155.0" x2="890" y2="155.0" stroke="#EB5757" stroke-width="3" stroke-dasharray="8 7"/>
<polyline points="100.0,80.0 152.7,80.0 205.3,80.0 363.3,80.0 890.0,80.0" fill="none" stroke="#2F80ED" stroke-width="3"/>
<rect x="916" y="98" width="18" height="18" fill="#2F80ED"/>
<text x="944" y="113" font-family="DejaVu Sans, Arial" font-size="14">накопленная доля</text>
</svg>
