<svg xmlns="http://www.w3.org/2000/svg" width="1120" height="660" viewBox="0 0 1120 660">
<rect width="100%" height="100%" fill="#fff"/>
<text x="560.0" y="42" text-anchor="middle" font-family="DejaVu Sans, Arial" font-size="27" font-weight="700">Рабочий график выполнения НИР по бланку</text>
<line x1="130" y1="85" x2="130" y2="505" stroke="#333" stroke-width="2"/>
<line x1="130" y1="505" x2="1065" y2="505" stroke="#333" stroke-width="2"/>
<text x="28" y="295.0" transform="rotate(-90 28 295.0)" text-anchor="middle" font-family="DejaVu Sans, Arial" font-size="17">недели</text>
<line x1="130" y1="505.0" x2="1065" y2="505.0" stroke="#e7e7e7"/>
<text x="118" y="510.0" text-anchor="end" font-family="DejaVu Sans, Arial" font-size="13">0.00</text>
<line x1="130" y1="421.0" x2="1065" y2="421.0" stroke="#e7e7e7"/>
<text x="118" y="426.0" text-anchor="end" font-family="DejaVu Sans, Arial" font-size="13">0.60</text>
<line x1="130" y1="337.0" x2="1065" y2="337.0" stroke="#e7e7e7"/>
<text x="118" y="342.0" text-anchor="end" font-family="DejaVu Sans, Arial" font-size="13">1.20</text>
<line x1="130" y1="253.0" x2="1065" y2="253.0" stroke="#e7e7e7"/>
<text x="118" y="258.0" text-anchor="end" font-family="DejaVu Sans, Arial" font-size="13">1.80</text>
<line x1="130" y1="169.0" x2="1065" y2="169.0" stroke="#e7e7e7"/>
<text x="118" y="174.0" text-anchor="end" font-family="DejaVu Sans, Arial" font-size="13">2.40</text>
<line x1="130" y1="85.0" x2="1065" y2="85.0" stroke="#e7e7e7"/>
<text x="118" y="90.0" text-anchor="end" font-family="DejaVu Sans, Arial" font-size="13">3.00</text>
<rect x="206.9" y="85.0" width="80.0" height="420.0" fill="#B26A00" rx="5"/>
<text x="246.9" y="103.0" text-anchor="middle" font-family="DejaVu Sans, Arial" font-size="14" font-weight="700">3.00</text>
<text x="246.9" y="529.0" text-anchor="end" transform="rotate(-35 246.9 529.0)" font-family="DejaVu Sans, Arial" font-size="13">недели 1-3</text>
<rect x="440.6" y="225.0" width="80.0" height="280.0" fill="#B26A00" rx="5"/>
<text x="480.6" y="215.0" text-anchor="middle" font-family="DejaVu Sans, Arial" font-size="14" font-weight="700">2.00</text>
<text x="480.6" y="529.0" text-anchor="end" transform="rotate(-35 480.6 529.0)" font-family="DejaVu Sans, Arial" font-size="13">недели 4-5</text>
<rect x="674.4" y="85.0" width="80.0" height="420.0" fill="#B26A00" rx="5"/>
<text x="714.4" y="103.0" text-anchor="middle" font-family="DejaVu Sans, Arial" font-size="14" font-weight="700">3.00</text>
<text x="714.4" y="529.0" text-anchor="end" transform="rotate(-35 714.4 529.0)" font-family="DejaVu Sans, Arial" font-size="13">недели 6-8</text>
<rect x="908.1" y="225.0" width="80.0" height="280.0" fill="#B26A00" rx="5"/>
<text x="948.1" y="215.0" text-anchor="middle" font-family="DejaVu Sans, Arial" font-size="14" font-weight="700">2.00</text>
<text x="948.1" y="529.0" text-anchor="end" transform="rotate(-35 948.1 529.0)" font-family="DejaVu Sans, Arial" font-size="13">недели 9-10</text>
</svg>
