# Cigarette butt lying along X axis, meters.
v -0.040 0.006 0.006
v -0.040 0.004 0.010
v -0.040 0.000 0.012
v -0.040 -0.004 0.010
v -0.040 -0.006 0.006
v -0.040 -0.004 0.002
v -0.040 0.000 0.000
v -0.040 0.004 0.002
v 0.040 0.006 0.006
v 0.040 0.004 0.010
v 0.040 0.000 0.012
v 0.040 -0.004 0.010
v 0.040 -0.006 0.006
v 0.040 -0.004 0.002
v 0.040 0.000 0.000
v 0.040 0.004 0.002
f 1 2 10 9
f 2 3 11 10
f 3 4 12 11
f 4 5 13 12
f 5 6 14 13
f 6 7 15 14
f 7 8 16 15
f 8 1 9 16
f 1 8 7 6 5 4 3 2
f 9 10 11 12 13 14 15 16
